<svg width="98" height="36" viewBox="0 0 98 36" fill="none" xmlns="http://www.w3.org/2000/svg">
<path d="M22.1884 13.9152L24.0525 9.41189H22.9314L21.6695 12.7237L20.4075 9.41189H19.2865L21.157 13.9152H22.1884Z" fill="white"/>
<path d="M24.3617 9.89233C24.3617 10.2446 24.6244 10.4112 24.887 10.4112C25.1497 10.4112 25.4123 10.2446 25.4123 9.89233C25.4123 9.54001 25.1497 9.37345 24.887 9.37345C24.6244 9.37345 24.3617 9.54001 24.3617 9.89233ZM25.3482 10.7251H24.4258V13.896H25.3482V10.7251Z" fill="white"/>
<path d="M28.1196 11.6347L28.5744 11.0646C28.2413 10.7763 27.8505 10.6546 27.3637 10.6546C26.6719 10.6546 25.9992 10.9621 25.9992 11.6667C25.9992 12.4098 26.7359 12.6597 27.3252 12.6789C27.7544 12.6981 27.8633 12.8134 27.8633 12.9607C27.8697 13.1081 27.6776 13.217 27.4149 13.217C27.0754 13.217 26.6847 13.1465 26.2875 12.8326L25.8903 13.4732C26.422 13.9152 26.9153 14.0113 27.3765 14.0113C28.3822 14.0113 28.7602 13.454 28.7602 12.9607C28.7602 12.0895 27.9979 11.9614 27.3829 11.9422C27.069 11.9358 26.9153 11.8397 26.9153 11.6667C26.9153 11.5194 27.069 11.4105 27.3701 11.4105C27.6584 11.4105 27.8826 11.4746 28.1196 11.6347Z" fill="white"/>
<path d="M30.1955 10.7315H29.2667V12.4483C29.2667 13.6974 29.8944 13.9985 30.6183 13.9985C30.9898 13.9985 31.3358 13.8896 31.6112 13.518L31.6432 13.9024H32.476V10.7315H31.5664V12.4034C31.5664 12.8198 31.2781 13.1785 30.8489 13.1785C30.4133 13.1785 30.1955 12.9351 30.1955 12.4419V10.7315Z" fill="white"/>
<path d="M35.7059 10.7315L35.6739 11.0966C35.4945 10.8084 35.1166 10.661 34.6938 10.661C33.7841 10.661 33.0795 11.2824 33.0795 12.3137C33.0795 13.3579 33.7649 13.9921 34.713 13.9921C35.0205 13.9921 35.4817 13.8575 35.6867 13.4988L35.7379 13.896H36.5707V10.7315H35.7059ZM34.8347 11.4746C35.3792 11.4746 35.6739 11.891 35.6739 12.3458C35.6739 12.7365 35.3536 13.1465 34.8347 13.1465C34.3735 13.1465 34.0019 12.839 34.0019 12.3137C34.0019 11.7885 34.3735 11.4746 34.8347 11.4746Z" fill="white"/>
<path d="M38.2789 9.4183H37.3629V13.896H38.2789V9.4183Z" fill="white"/>
<path d="M44.1138 13.896V12.9735H41.6795V12.0703H43.8896V11.1927H41.6795V10.3279H44.0241V9.41189H40.6995V13.896H44.1138Z" fill="white"/>
<path d="M45.7232 9.4183H44.8072V13.896H45.7232V9.4183Z" fill="white"/>
<path d="M47.2706 12.634H49.5959C49.6215 12.4803 49.6279 12.3394 49.6279 12.2048C49.6279 11.1863 48.9681 10.6674 48.0137 10.6674C46.9887 10.6674 46.3353 11.3465 46.3353 12.3009C46.3353 13.3066 46.9631 13.9985 48.1098 13.9985C48.5902 13.9985 49.1283 13.864 49.4678 13.5308L48.9489 12.9543C48.7247 13.1529 48.3788 13.2041 48.129 13.2041C47.6101 13.2041 47.3154 12.9415 47.2706 12.634ZM48.7696 11.9614H47.2706C47.3667 11.6475 47.6357 11.4554 48.0137 11.4554C48.398 11.4554 48.7503 11.6219 48.7696 11.9614Z" fill="white"/>
<path d="M52.2937 13.896H53.2034V12.1984C53.2034 11.8397 53.3763 11.5258 53.7415 11.5258C54.1194 11.5258 54.2219 11.7821 54.2219 12.1856V13.896H55.1507V12.1664C55.1507 10.9813 54.5486 10.661 53.8888 10.661C53.4212 10.661 53.1265 10.8148 52.8446 11.2504C52.6396 10.7956 52.2553 10.661 51.9158 10.661C51.6339 10.661 51.288 10.7507 51.083 11.0902L51.019 10.7315H50.2118V13.896H51.1343V12.2048C51.1343 11.8461 51.3393 11.5066 51.7044 11.5066C52.0887 11.5066 52.2937 11.7821 52.2937 12.1984V13.896Z" fill="white"/>
<path d="M56.6416 12.634H58.967C58.9926 12.4803 58.999 12.3394 58.999 12.2048C58.999 11.1863 58.3392 10.6674 57.3847 10.6674C56.3598 10.6674 55.7064 11.3465 55.7064 12.3009C55.7064 13.3066 56.3342 13.9985 57.4808 13.9985C57.9613 13.9985 58.4993 13.864 58.8389 13.5308L58.32 12.9543C58.0958 13.1529 57.7499 13.2041 57.5 13.2041C56.9812 13.2041 56.6865 12.9415 56.6416 12.634ZM58.1406 11.9614H56.6416C56.7377 11.6475 57.0068 11.4554 57.3847 11.4554C57.7691 11.4554 58.1214 11.6219 58.1406 11.9614Z" fill="white"/>
<path d="M61.8634 13.896H62.7922V12.2176C62.7922 10.9685 62.1708 10.661 61.4406 10.661C61.069 10.661 60.7231 10.7763 60.4477 11.1351L60.4156 10.7315H59.5829V13.896H60.4925V12.2625C60.4925 11.8461 60.7808 11.4874 61.21 11.4874C61.6456 11.4874 61.8634 11.7308 61.8634 12.2241V13.896Z" fill="white"/>
<path d="M64.7858 9.8667L63.8633 9.9692V10.7507H63.2996V11.5194H63.8633V12.7365C63.8633 13.723 64.3822 14.0241 65.0676 13.9921C65.3175 13.9729 65.5032 13.9472 65.7338 13.8511L65.5225 13.0824C65.42 13.1337 65.247 13.1593 65.1381 13.1593C64.9651 13.1593 64.7794 13.0696 64.7794 12.7365V11.5194H65.5865V10.7507H64.7858V9.8667Z" fill="white"/>
<path d="M68.2062 11.6347L68.661 11.0646C68.3279 10.7763 67.9371 10.6546 67.4503 10.6546C66.7584 10.6546 66.0858 10.9621 66.0858 11.6667C66.0858 12.4098 66.8225 12.6597 67.4118 12.6789C67.841 12.6981 67.9499 12.8134 67.9499 12.9607C67.9563 13.1081 67.7641 13.217 67.5015 13.217C67.162 13.217 66.7712 13.1465 66.3741 12.8326L65.9769 13.4732C66.5086 13.9152 67.0019 14.0113 67.4631 14.0113C68.4688 14.0113 68.8467 13.454 68.8467 12.9607C68.8467 12.0895 68.0844 11.9614 67.4695 11.9422C67.1556 11.9358 67.0018 11.8397 67.0018 11.6667C67.0018 11.5194 67.1556 11.4105 67.4567 11.4105C67.7449 11.4105 67.9691 11.4746 68.2062 11.6347Z" fill="white"/>
<path d="M72.462 13.9985C73.5382 13.9985 74.198 13.3323 74.198 12.3201C74.198 11.3657 73.519 10.661 72.462 10.661C71.4115 10.661 70.7325 11.3657 70.7325 12.3201C70.7325 13.3323 71.3859 13.9985 72.462 13.9985ZM72.462 13.1785C71.8983 13.1785 71.6677 12.7493 71.6677 12.3201C71.6677 11.923 71.9175 11.4874 72.462 11.4874C73.0193 11.4874 73.2628 11.923 73.2628 12.3201C73.2628 12.7686 73.0257 13.1785 72.462 13.1785Z" fill="white"/>
<path d="M75.0856 13.896H76.0081V11.545H76.8857V10.7699H76.0081V10.6034C76.0081 10.2703 76.2002 10.1165 76.4757 10.1165C76.623 10.1165 76.7832 10.1486 76.9305 10.2446L77.2444 9.59766C76.9689 9.4247 76.7255 9.32861 76.3668 9.32861C75.7454 9.32861 75.0856 9.68734 75.0856 10.6034V10.7699H74.5283V11.545H75.0856V13.896Z" fill="white"/>
<path d="M19.6338 17.7459H18.6409V20.2506C18.6409 20.936 18.3847 21.4357 17.6416 21.4357C16.9498 21.4357 16.5398 21.0257 16.5398 20.2506V17.7459H15.5469V20.2506C15.5469 21.6727 16.4949 22.3325 17.6288 22.3325C18.8523 22.3325 19.6338 21.6086 19.6338 20.2506V17.7459Z" fill="white"/>
<path d="M22.3612 19.9623L22.816 19.3922C22.4829 19.1039 22.0921 18.9822 21.6053 18.9822C20.9135 18.9822 20.2409 19.2897 20.2409 19.9943C20.2409 20.7374 20.9775 20.9873 21.5669 21.0065C21.9961 21.0257 22.105 21.141 22.105 21.2883C22.1114 21.4357 21.9192 21.5446 21.6565 21.5446C21.317 21.5446 20.9263 21.4741 20.5291 21.1602L20.132 21.8008C20.6636 22.2428 21.1569 22.3389 21.6181 22.3389C22.6238 22.3389 23.0018 21.7816 23.0018 21.2883C23.0018 20.4171 22.2395 20.289 21.6245 20.2698C21.3106 20.2634 21.1569 20.1673 21.1569 19.9943C21.1569 19.847 21.3106 19.7381 21.6117 19.7381C21.9 19.7381 22.1242 19.8022 22.3612 19.9623Z" fill="white"/>
<path d="M24.309 20.9616H26.6343C26.66 20.8079 26.6664 20.667 26.6664 20.5324C26.6664 19.5139 26.0066 18.995 25.0521 18.995C24.0272 18.995 23.3738 19.6741 23.3738 20.6285C23.3738 21.6342 24.0015 22.3261 25.1482 22.3261C25.6286 22.3261 26.1667 22.1916 26.5062 21.8584L25.9874 21.2819C25.7631 21.4805 25.4172 21.5317 25.1674 21.5317C24.6485 21.5317 24.3539 21.2691 24.309 20.9616ZM25.808 20.289H24.309C24.4051 19.9751 24.6742 19.783 25.0521 19.783C25.4364 19.783 25.7888 19.9495 25.808 20.289Z" fill="white"/>
<path d="M28.1086 19.0655H27.2503V22.2236H28.1727V20.5773C28.1727 20.1032 28.5122 19.847 28.9094 19.847C29.0951 19.847 29.2681 19.8983 29.4154 20.0072L29.7998 19.2769C29.582 19.0847 29.3257 18.9886 29.0247 18.9886C28.6659 18.9886 28.3905 19.1103 28.1791 19.4114L28.1086 19.0655Z" fill="white"/>
<path d="M31.6318 22.2236H32.6247V17.7395H31.6318V22.2236Z" fill="white"/>
<path d="M35.7614 22.2236H36.6903V20.5452C36.6903 19.2961 36.0689 18.9886 35.3386 18.9886C34.9671 18.9886 34.6212 19.1039 34.3457 19.4627L34.3137 19.0591H33.4809V22.2236H34.3906V20.5901C34.3906 20.1737 34.6788 19.815 35.108 19.815C35.5436 19.815 35.7614 20.0584 35.7614 20.5517V22.2236Z" fill="white"/>
<path d="M38.6838 18.1943L37.7614 18.2968V19.0783H37.1977V19.847H37.7614V21.0641C37.7614 22.0506 38.2803 22.3517 38.9657 22.3197C39.2155 22.3004 39.4013 22.2748 39.6319 22.1787L39.4205 21.41C39.318 21.4613 39.1451 21.4869 39.0362 21.4869C38.8632 21.4869 38.6774 21.3972 38.6774 21.0641V19.847H39.4846V19.0783H38.6838V18.1943Z" fill="white"/>
<path d="M40.8679 20.9616H43.1932C43.2188 20.8079 43.2252 20.667 43.2252 20.5324C43.2252 19.5139 42.5654 18.995 41.611 18.995C40.586 18.995 39.9326 19.6741 39.9326 20.6285C39.9326 21.6342 40.5604 22.3261 41.707 22.3261C42.1875 22.3261 42.7256 22.1916 43.0651 21.8584L42.5462 21.2819C42.322 21.4805 41.9761 21.5317 41.7263 21.5317C41.2074 21.5317 40.9127 21.2691 40.8679 20.9616ZM42.3668 20.289H40.8679C40.964 19.9751 41.233 19.783 41.611 19.783C41.9953 19.783 42.3476 19.9495 42.3668 20.289Z" fill="white"/>
<path d="M44.6675 19.0655H43.8091V22.2236H44.7316V20.5773C44.7316 20.1032 45.0711 19.847 45.4682 19.847C45.654 19.847 45.827 19.8983 45.9743 20.0072L46.3586 19.2769C46.1408 19.0847 45.8846 18.9886 45.5835 18.9886C45.2248 18.9886 44.9494 19.1103 44.738 19.4114L44.6675 19.0655Z" fill="white"/>
<path d="M47.0319 22.2236H47.9543V19.8726H48.8319V19.0975H47.9543V18.931C47.9543 18.5979 48.1465 18.4441 48.422 18.4441C48.5693 18.4441 48.7295 18.4762 48.8768 18.5722L49.1907 17.9253C48.9152 17.7523 48.6718 17.6562 48.3131 17.6562C47.6917 17.6562 47.0319 18.0149 47.0319 18.931V19.0975H46.4746V19.8726H47.0319V22.2236Z" fill="white"/>
<path d="M51.7361 19.0591L51.7041 19.4242C51.5248 19.136 51.1468 18.9886 50.724 18.9886C49.8144 18.9886 49.1098 19.61 49.1098 20.6413C49.1098 21.6855 49.7952 22.3197 50.7432 22.3197C51.0507 22.3197 51.5119 22.1851 51.7169 21.8264L51.7682 22.2236H52.6009V19.0591H51.7361ZM50.865 19.8022C51.4094 19.8022 51.7041 20.2185 51.7041 20.6734C51.7041 21.0641 51.3838 21.4741 50.865 21.4741C50.4037 21.4741 50.0322 21.1666 50.0322 20.6413C50.0322 20.1161 50.4037 19.8022 50.865 19.8022Z" fill="white"/>
<path d="M56.1605 21.82L55.5776 21.2179C55.4238 21.3716 55.142 21.4549 54.937 21.4549C54.5078 21.4549 54.1234 21.1666 54.1234 20.6606C54.1234 20.1289 54.495 19.8342 54.9562 19.8342C55.1548 19.8342 55.3533 19.8726 55.5519 20.02L56.0644 19.437C55.7377 19.0847 55.379 18.9886 54.9178 18.9886C53.9953 18.9886 53.1946 19.5972 53.1946 20.6606C53.1946 21.8008 54.0017 22.3261 54.9242 22.3261C55.3341 22.3261 55.7761 22.2236 56.1605 21.82Z" fill="white"/>
<path d="M57.3016 20.9616H59.6269C59.6526 20.8079 59.659 20.667 59.659 20.5324C59.659 19.5139 58.9992 18.995 58.0447 18.995C57.0198 18.995 56.3664 19.6741 56.3664 20.6285C56.3664 21.6342 56.9941 22.3261 58.1408 22.3261C58.6212 22.3261 59.1593 22.1916 59.4988 21.8584L58.98 21.2819C58.7558 21.4805 58.4098 21.5317 58.16 21.5317C57.6411 21.5317 57.3465 21.2691 57.3016 20.9616ZM58.8006 20.289H57.3016C57.3977 19.9751 57.6668 19.783 58.0447 19.783C58.4291 19.783 58.7814 19.9495 58.8006 20.289Z" fill="white"/>
<path d="M63.7104 17.7395H61.8719V22.2236H63.7104C65.2798 22.2236 65.9396 21.1282 65.9396 19.9495C65.9396 18.7708 65.2542 17.7395 63.7104 17.7395ZM62.8584 21.3011V18.6427H63.7104C64.6456 18.6427 64.9531 19.2961 64.9531 19.9367C64.9531 20.5837 64.6841 21.3011 63.7104 21.3011H62.8584Z" fill="white"/>
<path d="M67.3045 20.9616H69.6298C69.6554 20.8079 69.6619 20.667 69.6619 20.5324C69.6619 19.5139 69.0021 18.995 68.0476 18.995C67.0226 18.995 66.3693 19.6741 66.3693 20.6285C66.3693 21.6342 66.997 22.3261 68.1437 22.3261C68.6241 22.3261 69.1622 22.1916 69.5017 21.8584L68.9828 21.2819C68.7586 21.4805 68.4127 21.5317 68.1629 21.5317C67.644 21.5317 67.3493 21.2691 67.3045 20.9616ZM68.8035 20.289H67.3045C67.4006 19.9751 67.6696 19.783 68.0476 19.783C68.4319 19.783 68.7843 19.9495 68.8035 20.289Z" fill="white"/>
<path d="M72.238 19.9623L72.6928 19.3922C72.3597 19.1039 71.9689 18.9822 71.4821 18.9822C70.7902 18.9822 70.1176 19.2897 70.1176 19.9943C70.1176 20.7374 70.8543 20.9873 71.4436 21.0065C71.8728 21.0257 71.9817 21.141 71.9817 21.2883C71.9881 21.4357 71.796 21.5446 71.5333 21.5446C71.1938 21.5446 70.803 21.4741 70.4059 21.1602L70.0087 21.8008C70.5404 22.2428 71.0337 22.3389 71.4949 22.3389C72.5006 22.3389 72.8785 21.7816 72.8785 21.2883C72.8785 20.4171 72.1162 20.289 71.5013 20.2698C71.1874 20.2634 71.0337 20.1673 71.0337 19.9943C71.0337 19.847 71.1874 19.7381 71.4885 19.7381C71.7767 19.7381 72.0009 19.8022 72.238 19.9623Z" fill="white"/>
<path d="M73.3658 18.2199C73.3658 18.5722 73.6285 18.7388 73.8911 18.7388C74.1538 18.7388 74.4164 18.5722 74.4164 18.2199C74.4164 17.8676 74.1538 17.7011 73.8911 17.7011C73.6285 17.7011 73.3658 17.8676 73.3658 18.2199ZM74.3523 19.0527H73.4299V22.2236H74.3523V19.0527Z" fill="white"/>
<path d="M75.8553 22.6784H74.9969C74.9777 23.5944 75.5478 24.1325 76.6496 24.1325C77.5144 24.1325 78.3664 23.6777 78.3664 22.736C78.3664 22.5567 78.3664 22.025 77.6618 21.7175C78.1422 21.4677 78.3408 21.0257 78.3408 20.5452C78.3408 20.2506 78.2255 19.9559 78.0141 19.6997L78.4176 19.2192L77.7514 18.7068L77.4055 19.1552C77.2005 19.0078 76.8866 18.9822 76.6624 18.9822C75.7784 18.9822 74.9521 19.5267 74.9521 20.5965C74.9521 21.5766 75.6247 22.1916 76.6624 22.1916C77.2326 22.1916 77.4311 22.4286 77.4311 22.736C77.4311 23.1268 77.0596 23.319 76.6496 23.319C76.2204 23.319 75.8873 23.1652 75.8553 22.6784ZM76.6624 19.8022C77.1173 19.8022 77.4568 20.1545 77.4568 20.5965C77.4568 21.1026 77.0788 21.3524 76.6624 21.3524C76.1948 21.3524 75.8425 21.0577 75.8425 20.5965C75.8425 20.084 76.1948 19.8022 76.6624 19.8022Z" fill="white"/>
<path d="M81.2967 22.2236H82.2256V20.5452C82.2256 19.2961 81.6042 18.9886 80.8739 18.9886C80.5024 18.9886 80.1565 19.1039 79.881 19.4627L79.849 19.0591H79.0162V22.2236H79.9259V20.5901C79.9259 20.1737 80.2141 19.815 80.6433 19.815C81.0789 19.815 81.2967 20.0584 81.2967 20.5517V22.2236Z" fill="white"/>
<path d="M39.7852 29.9811L39.3944 29.5967C39.0549 29.9298 38.5681 30.1156 38.1133 30.1156C36.9026 30.1156 36.3517 29.238 36.3324 28.3283C36.3324 27.3995 36.909 26.5155 38.1133 26.5155C38.5681 26.5155 39.0229 26.6756 39.3752 27.0087L39.7596 26.6564C39.2983 26.2016 38.709 25.9774 38.1133 25.9774C36.5566 25.9774 35.7687 27.1241 35.7687 28.3091C35.7687 29.507 36.5182 30.6409 38.1133 30.6409C38.7346 30.6409 39.3176 30.4295 39.7852 29.9811Z" fill="white"/>
<path d="M43.2396 30.0643H43.2461L42.8873 29.7504C42.6823 30.0067 42.2339 30.1412 41.8816 30.1412C41.2795 30.1412 40.7862 29.7633 40.7286 29.1483H43.4254C43.4318 29.0586 43.4382 28.9689 43.4382 28.8857C43.4382 27.8095 42.74 27.3162 41.8432 27.3162C40.8887 27.3162 40.2033 28.0016 40.2033 28.9561C40.2033 29.9875 40.8887 30.628 41.8688 30.628C42.362 30.628 42.9065 30.4487 43.2396 30.0643ZM42.9194 28.7127H40.7286C40.831 28.0977 41.3051 27.7903 41.856 27.7903C42.4773 27.7903 42.9001 28.1041 42.9194 28.7127Z" fill="white"/>
<path d="M44.687 27.8543L44.6421 27.3931H44.1553V30.5512H44.6806V28.7832C44.6806 28.2066 45.1033 27.8351 45.6094 27.8351C45.8336 27.8351 45.9874 27.8928 46.1603 28.0145L46.3973 27.5661C46.2052 27.4315 45.9489 27.3162 45.6799 27.3162C45.3211 27.3162 44.924 27.4379 44.687 27.8543Z" fill="white"/>
<path d="M47.7921 27.3739V26.4642L47.2604 26.5219V27.3739H46.6262V27.8223H47.2604V29.5519C47.2604 30.2309 47.5615 30.628 48.2149 30.628C48.4455 30.628 48.6569 30.5768 48.8747 30.4743L48.7209 30.0387C48.5736 30.1092 48.4263 30.1604 48.2853 30.1604C47.901 30.1604 47.7857 29.9234 47.7857 29.5519V27.8223H48.7658V27.3739H47.7921Z" fill="white"/>
<path d="M49.3645 26.4194C49.3645 26.65 49.531 26.7589 49.7104 26.7589C49.8769 26.7589 50.0627 26.6564 50.0627 26.4258C50.0627 26.1952 49.8769 26.0799 49.7104 26.0799C49.531 26.0799 49.3645 26.1952 49.3645 26.4194ZM49.4414 27.3931V30.5512H49.9666V27.3931H49.4414Z" fill="white"/>
<path d="M51.2824 30.5512H51.8141V27.8863H52.8006V27.4315H51.8141V27.1753C51.8141 26.6949 52.0255 26.4835 52.365 26.4835C52.5443 26.4835 52.6789 26.5475 52.8518 26.65L53.0696 26.2593C52.8454 26.0991 52.602 26.0287 52.3522 26.0287C51.6924 26.0287 51.2824 26.4514 51.2824 27.1753V27.4315H50.6674V27.8863H51.2824V30.5512Z" fill="white"/>
<path d="M53.3056 26.4194C53.3056 26.65 53.4721 26.7589 53.6515 26.7589C53.818 26.7589 54.0038 26.6564 54.0038 26.4258C54.0038 26.1952 53.818 26.0799 53.6515 26.0799C53.4721 26.0799 53.3056 26.1952 53.3056 26.4194ZM53.3824 27.3931V30.5512H53.9077V27.3931H53.3824Z" fill="white"/>
<path d="M57.7154 30.0643H57.7218L57.363 29.7504C57.158 30.0067 56.7096 30.1412 56.3573 30.1412C55.7552 30.1412 55.2619 29.7633 55.2043 29.1483H57.9011C57.9075 29.0586 57.9139 28.9689 57.9139 28.8857C57.9139 27.8095 57.2157 27.3162 56.3189 27.3162C55.3644 27.3162 54.679 28.0016 54.679 28.9561C54.679 29.9875 55.3644 30.628 56.3445 30.628C56.8378 30.628 57.3822 30.4487 57.7154 30.0643ZM57.3951 28.7127H55.2043C55.3068 28.0977 55.7808 27.7903 56.3317 27.7903C56.9531 27.7903 57.3758 28.1041 57.3951 28.7127Z" fill="white"/>
<path d="M61.7506 26.0607L61.7442 26.0671H61.219V27.9632C60.9947 27.534 60.4823 27.3162 60.0403 27.3162C59.137 27.3162 58.4388 27.9056 58.4388 28.9689C58.4388 30.0515 59.137 30.628 60.0403 30.628C60.5079 30.628 60.9691 30.4038 61.2254 29.9682L61.251 30.5512H61.7506V26.0607ZM60.0723 27.8095C60.7065 27.8095 61.1997 28.2771 61.1997 28.9561C61.1997 29.648 60.7129 30.1284 60.0787 30.1284C59.4637 30.1284 58.9577 29.7376 58.9577 28.9625C58.9577 28.2195 59.4637 27.8095 60.0723 27.8095Z" fill="white"/>
<path d="M84.8218 11.5156C84.9297 11.5139 85.0378 11.4816 85.1326 11.4171C87.1437 10.0473 88.3742 8.16965 88.5977 6.13006C88.5977 6.13006 88.5977 6.13006 88.5977 6.12998C88.8208 4.09055 88.0256 1.99117 86.3586 0.21862C86.1671 0.0150665 85.8562 -0.0188774 85.6253 0.138319C83.6142 1.50817 82.3837 3.38581 82.1602 5.42532C81.937 7.46474 82.7323 9.56412 84.3993 11.3368C84.5122 11.4569 84.6667 11.518 84.8218 11.5156Z" fill="white"/>
<path d="M87.5305 17.7976C87.6345 17.7917 87.7383 17.784 87.8408 17.7749C90.1316 17.5717 92.0333 16.6085 93.2202 15.0432C94.46 13.4085 94.8569 11.1988 94.338 8.82151C94.2783 8.5486 94.0292 8.35961 93.7504 8.37571C91.3196 8.51639 89.3008 9.49463 88.0606 11.1302C86.8209 12.7648 86.4239 14.9744 86.9428 17.3519C87.0024 17.6248 87.2516 17.8138 87.5305 17.7976Z" fill="white"/>
<path d="M96.7142 18.3935C94.4096 17.6126 92.1696 17.7605 90.4068 18.8104C88.644 19.86 87.4465 21.759 87.035 24.1574C86.9878 24.4328 87.1479 24.7016 87.4125 24.7913C88.8405 25.2752 90.2438 25.4024 91.5241 25.1794C92.3099 25.0425 93.0495 24.7737 93.7199 24.3744C95.4826 23.3248 96.6801 21.4259 97.0916 19.0275C97.1389 18.752 96.9788 18.4832 96.7142 18.3935Z" fill="white"/>
<path d="M84.4883 26.5241C82.4974 27.0214 80.8037 28.4943 79.7183 30.6722C79.5937 30.9222 79.6695 31.2258 79.897 31.3879C81.8788 32.8001 84.0664 33.3041 86.0569 32.8071C86.6213 32.6662 87.162 32.4468 87.6717 32.1551C88.9592 31.4181 90.0491 30.2196 90.8268 28.6592C90.9515 28.4091 90.8757 28.1055 90.6482 27.9434C88.6664 26.5313 86.4788 26.0272 84.4883 26.5241Z" fill="white"/>
<path d="M13.1782 11.5156C13.0703 11.5139 12.9622 11.4816 12.8674 11.4171C10.8563 10.0473 9.62579 8.16965 9.40231 6.13006C9.40231 6.13006 9.40231 6.13006 9.40231 6.12998C9.17916 4.09055 9.9744 1.99117 11.6414 0.21862C11.8329 0.0150665 12.1438 -0.0188774 12.3747 0.138319C14.3858 1.50817 15.6163 3.38581 15.8398 5.42532C16.063 7.46474 15.2677 9.56412 13.6007 11.3368C13.4878 11.4569 13.3333 11.518 13.1782 11.5156Z" fill="white"/>
<path d="M10.4695 17.7976C10.3655 17.7917 10.2617 17.784 10.1592 17.7749C7.86836 17.5717 5.96674 16.6085 4.77977 15.0432C3.54 13.4085 3.14309 11.1988 3.66205 8.82151C3.72169 8.5486 3.97081 8.35961 4.24962 8.37571C6.68038 8.51639 8.69925 9.49463 9.93944 11.1302C11.1791 12.7648 11.5761 14.9744 11.0572 17.3519C10.9976 17.6248 10.7484 17.8138 10.4695 17.7976Z" fill="white"/>
<path d="M1.28582 18.3935C3.59035 17.6126 5.83045 17.7605 7.59322 18.8104C9.35602 19.86 10.5535 21.759 10.965 24.1574C11.0122 24.4328 10.8521 24.7016 10.5875 24.7913C9.15949 25.2752 7.75618 25.4024 6.47595 25.1794C5.6901 25.0425 4.95053 24.7737 4.28005 24.3744C2.51741 23.3248 1.31992 21.4259 0.908363 19.0275C0.861145 18.752 1.02119 18.4832 1.28582 18.3935Z" fill="white"/>
<path d="M13.5117 26.5241C15.5026 27.0214 17.1963 28.4943 18.2817 30.6722C18.4063 30.9222 18.3305 31.2258 18.103 31.3879C16.1212 32.8001 13.9336 33.3041 11.9431 32.8071C11.3787 32.6662 10.838 32.4468 10.3283 32.1551C9.04076 31.4181 7.95086 30.2196 7.17318 28.6592C7.04852 28.4091 7.12433 28.1055 7.35184 27.9434C9.33359 26.5313 11.5212 26.0272 13.5117 26.5241Z" fill="white"/>
</svg>
