<svg xmlns="http://www.w3.org/2000/svg" xmlns:xlink="http://www.w3.org/1999/xlink" width="500" height="120" viewBox="0 0 500 120">
  <defs>
    <clipPath id="clip-Artboard_20">
      <rect width="500" height="120"/>
    </clipPath>
  </defs>
  <g id="Artboard_20" data-name="Artboard – 20" clip-path="url(#clip-Artboard_20)">
    <g id="Layer_3" data-name="Layer 3" transform="translate(4 2)">
      <path id="Path_794" data-name="Path 794" d="M257.987,7.992a18.5,18.5,0,0,0-4.722-5.5A12.577,12.577,0,0,0,245.472,0a12.868,12.868,0,0,0-7.793,2.449,17.836,17.836,0,0,0-4.791,5.474L186.22,85.733l19.794,18.973,38.828-65.863,16.592,27.879h-24.8L225.386,86.186l47.6.1L286.3,108.621h32.248Z" transform="translate(-43.337 0.004)" fill="#0e99e1"/>
      <path id="Path_795" data-name="Path 795" d="M408.653.575V64.657l-60-59.536a17.883,17.883,0,0,0-5.06-3.685A13.613,13.613,0,0,0,337.853.168a12.968,12.968,0,0,0-10.166,4.476,15.99,15.99,0,0,0-3.547,10.7V55.789L350.391,99.73V44.7l59.736,60.081c3.378,3.371,7.179,5.083,11.318,5.083a12.761,12.761,0,0,0,9.874-4.392c2.38-2.718,3.586-6.357,3.586-10.8V.575Z" transform="translate(-75.361 -0.035)" fill="#0e99e1"/>
      <path id="Path_796" data-name="Path 796" d="M597.745,33.189A48.073,48.073,0,0,0,570.1,5.548,57.248,57.248,0,0,0,548.92,1.709H525.272a55.9,55.9,0,0,0-20.639,3.762,49.755,49.755,0,0,0-16.646,10.749A48.557,48.557,0,0,0,476.938,32.99,57.1,57.1,0,0,0,473,54.373a59.021,59.021,0,0,0,3.885,21.5,52.4,52.4,0,0,0,10.957,17.376,51.849,51.849,0,0,0,16.638,11.571,51.128,51.128,0,0,0,20.823,4.238h23.633a51.244,51.244,0,0,0,48.756-33.162,58.921,58.921,0,0,0,3.885-21.5A57.085,57.085,0,0,0,597.745,33.189Zm-48.81,48.779H525.272a25.238,25.238,0,0,1-10.1-2,23.8,23.8,0,0,1-7.916-5.474,25.244,25.244,0,0,1-5.236-8.446,30.136,30.136,0,0,1-1.935-10.888,29.431,29.431,0,0,1,1.919-10.857,24.916,24.916,0,0,1,5.221-8.239,23.7,23.7,0,0,1,7.9-5.375,25.96,25.96,0,0,1,10.143-1.889h23.664A26.781,26.781,0,0,1,559.3,30.763a23.441,23.441,0,0,1,13.291,13.629,29.476,29.476,0,0,1,1.935,10.8,30.138,30.138,0,0,1-1.935,10.888,24.823,24.823,0,0,1-5.275,8.4,24.523,24.523,0,0,1-8.062,5.5,26.014,26.014,0,0,1-10.319,1.989Z" transform="translate(-109.924 -0.393)" fill="#0e99e1"/>
      <path id="Path_797" data-name="Path 797" d="M132.154,52.262,185.548,1.74H138.619L108.69,30.064l23.288,22.028Z" transform="translate(-25.335 -0.401)" fill="#0461bd"/>
      <path id="Path_798" data-name="Path 798" d="M131.978,75.839,108.69,97.875l29.929,28.317h46.929L132.154,75.67Z" transform="translate(-25.335 -17.567)" fill="#0461bd"/>
      <path id="Path_799" data-name="Path 799" d="M46.929,1.74H0L56.687,55.387,0,109.026H46.929l56.7-53.639Z" transform="translate(-0.098 -0.401)" fill="#0e99e1"/>
    </g>
  </g>
</svg>
